<svg width="24" height="24" viewBox="0 0 24 24" fill="none" xmlns="http://www.w3.org/2000/svg">
<path d="M2.3334 9.04L12.0001 3.48667L21.6667 9.04C21.8191 9.11971 21.9964 9.13746 22.1615 9.08955C22.3266 9.04164 22.4669 8.93178 22.5529 8.78291C22.639 8.63404 22.6642 8.45768 22.6233 8.29067C22.5824 8.12366 22.4785 7.97892 22.3334 7.88667L12.0001 1.94667L1.66673 7.88667C1.58706 7.92835 1.51665 7.98571 1.45972 8.05531C1.40279 8.1249 1.36053 8.20529 1.33548 8.29165C1.31043 8.378 1.3031 8.46853 1.31395 8.55778C1.32479 8.64704 1.35357 8.73318 1.39857 8.81102C1.44357 8.88887 1.50384 8.9568 1.57578 9.01075C1.64771 9.06469 1.72981 9.10353 1.81714 9.12492C1.90447 9.14631 1.99523 9.14981 2.08395 9.13522C2.17267 9.12063 2.25752 9.08824 2.3334 9.04Z" fill="#6E7191"/>
<path d="M2.66675 17.3333C2.66675 17.5101 2.73699 17.6797 2.86201 17.8047C2.98703 17.9298 3.1566 18 3.33341 18H20.6667C20.8436 18 21.0131 17.9298 21.1382 17.8047C21.2632 17.6797 21.3334 17.5101 21.3334 17.3333C21.3334 17.1565 21.2632 16.9869 21.1382 16.8619C21.0131 16.7369 20.8436 16.6667 20.6667 16.6667H18.6667V11.7533H17.3334V16.6667H12.6667V11.7533H11.3334V16.6667H6.66675V11.7533H5.33341V16.6667H3.33341C3.1566 16.6667 2.98703 16.7369 2.86201 16.8619C2.73699 16.9869 2.66675 17.1565 2.66675 17.3333Z" fill="#6E7191"/>
<path d="M3.34668 9.33333H20.68V10.6667H3.34668V9.33333Z" fill="#6E7191"/>
<path d="M21.9999 19.3333H1.99992C1.82311 19.3333 1.65354 19.4036 1.52851 19.5286C1.40349 19.6536 1.33325 19.8232 1.33325 20C1.33325 20.1768 1.40349 20.3464 1.52851 20.4714C1.65354 20.5964 1.82311 20.6667 1.99992 20.6667H21.9999C22.1767 20.6667 22.3463 20.5964 22.4713 20.4714C22.5963 20.3464 22.6666 20.1768 22.6666 20C22.6666 19.8232 22.5963 19.6536 22.4713 19.5286C22.3463 19.4036 22.1767 19.3333 21.9999 19.3333Z" fill="#6E7191"/>
<path d="M14.7666 7.72001H16.9066L12.4333 5.14668C12.3522 5.09987 12.2602 5.07523 12.1666 5.07523C12.073 5.07523 11.981 5.09987 11.8999 5.14668L7.41992 7.72001H9.55992L12.1599 6.22668L14.7666 7.72001Z" fill="#6E7191"/>
</svg>
