<svg width="16" height="24" viewBox="0 0 16 24" fill="none" xmlns="http://www.w3.org/2000/svg">
<path fill-rule="evenodd" clip-rule="evenodd" d="M8.70605 16.5H10.0077V19.4385H8.70605V16.5Z" fill="#A0A3BD"/>
<path fill-rule="evenodd" clip-rule="evenodd" d="M8.70605 16.5H10.0077V19.4385H8.70605V16.5Z" fill="#A0A3BD"/>
<path fill-rule="evenodd" clip-rule="evenodd" d="M5.88232 12H7.20656V14.961H5.88232V12Z" fill="#A0A3BD"/>
<path fill-rule="evenodd" clip-rule="evenodd" d="M5.88232 12H7.20656V14.961H5.88232V12Z" fill="#A0A3BD"/>
<path fill-rule="evenodd" clip-rule="evenodd" d="M9.1238 7.16852C10.3351 5.66852 11.1991 2.28302 11.1991 1.05752C11.1991 -1.53148 9.74639 1.71752 7.95486 1.71752C6.16051 1.71752 4.71062 -1.56448 4.71062 1.05752C4.71062 2.30402 5.59863 5.77952 6.84521 7.24202C3.16333 8.35202 0.260742 13.983 0.260742 18.933C0.260742 23.31 3.72663 23.979 8.00004 23.979C12.2734 23.979 15.7379 23.25 15.7379 18.933C15.7379 14.424 12.9087 8.13152 9.1238 7.16852ZM11.5732 19.5705H10.1614V21.0465H8.74968V22.593H7.25039V21.0465H5.83862V19.5705L5.85698 19.5465H4.42686V17.9535H5.90498V19.4835L5.92757 19.4535H7.2518V16.5465H5.88239V15.0705H4.40427V11.9775H5.88239V10.4535H7.25039V8.90702H8.74968V10.4535H10.1614V11.9535H11.5506V13.5465H10.0725V12.015L10.0499 12.024H8.74827V14.9535H10.1826V16.4775H11.5718V19.5705H11.5732Z" fill="#A0A3BD"/>
<path fill-rule="evenodd" clip-rule="evenodd" d="M9.1238 7.16852C10.3351 5.66852 11.1991 2.28302 11.1991 1.05752C11.1991 -1.53148 9.74639 1.71752 7.95486 1.71752C6.16051 1.71752 4.71062 -1.56448 4.71062 1.05752C4.71062 2.30402 5.59863 5.77952 6.84521 7.24202C3.16333 8.35202 0.260742 13.983 0.260742 18.933C0.260742 23.31 3.72663 23.979 8.00004 23.979C12.2734 23.979 15.7379 23.25 15.7379 18.933C15.7379 14.424 12.9087 8.13152 9.1238 7.16852ZM11.5732 19.5705H10.1614V21.0465H8.74968V22.593H7.25039V21.0465H5.83862V19.5705L5.85698 19.5465H4.42686V17.9535H5.90498V19.4835L5.92757 19.4535H7.2518V16.5465H5.88239V15.0705H4.40427V11.9775H5.88239V10.4535H7.25039V8.90702H8.74968V10.4535H10.1614V11.9535H11.5506V13.5465H10.0725V12.015L10.0499 12.024H8.74827V14.9535H10.1826V16.4775H11.5718V19.5705H11.5732Z" fill="#A0A3BD"/>
</svg>
