<svg width="24" height="24" viewBox="0 0 24 24" fill="none" xmlns="http://www.w3.org/2000/svg">
<path d="M16.8 20.8V24H0V20.8C0 20.8 0 14.4 8.4 14.4C16.8 14.4 16.8 20.8 16.8 20.8ZM12.6 5.60006C12.6 4.49249 12.3537 3.40979 11.8922 2.48888C11.4307 1.56797 10.7747 0.850207 10.0073 0.426358C9.23982 0.00250825 8.39534 -0.10839 7.58062 0.107686C6.7659 0.323763 6.01753 0.857109 5.43015 1.64028C4.84277 2.42345 4.44276 3.42127 4.2807 4.50756C4.11864 5.59385 4.20182 6.71982 4.51971 7.74308C4.83759 8.76635 5.37592 9.64094 6.06661 10.2563C6.75729 10.8716 7.56932 11.2 8.4 11.2C9.51391 11.2 10.5822 10.61 11.3698 9.55985C12.1575 8.50965 12.6 7.08527 12.6 5.60006ZM16.728 14.4C17.4657 15.1612 18.0693 16.1287 18.4964 17.2344C18.9235 18.3402 19.1637 19.5572 19.2 20.8V24H24V20.8C24 20.8 24 14.992 16.728 14.4ZM15.6 8.41261e-05C14.774 -0.0060482 13.9662 0.323212 13.284 0.944081C14.0129 2.30205 14.4049 3.93013 14.4049 5.60006C14.4049 7.27 14.0129 8.89807 13.284 10.256C13.9662 10.8769 14.774 11.2062 15.6 11.2C16.7139 11.2 17.7822 10.61 18.5699 9.55985C19.3575 8.50965 19.8 7.08527 19.8 5.60006C19.8 4.11486 19.3575 2.69048 18.5699 1.64028C17.7822 0.590081 16.7139 8.41261e-05 15.6 8.41261e-05Z" fill="#6E7191"/>
</svg>
