<svg width="24" height="24" viewBox="0 0 24 24" fill="none" xmlns="http://www.w3.org/2000/svg">
<path d="M20.4 24V21.1765H15.6V18.3529H20.4V15.5294L24 19.7647L20.4 24ZM9.6 0C10.873 0 12.0939 0.594956 12.9941 1.65399C13.8943 2.71301 14.4 4.14937 14.4 5.64706C14.4 7.14475 13.8943 8.5811 12.9941 9.64013C12.0939 10.6992 10.873 11.2941 9.6 11.2941C8.32696 11.2941 7.10606 10.6992 6.20589 9.64013C5.30571 8.5811 4.8 7.14475 4.8 5.64706C4.8 4.14937 5.30571 2.71301 6.20589 1.65399C7.10606 0.594956 8.32696 0 9.6 0ZM9.6 14.1176C10.98 14.1176 12.3 14.2871 13.488 14.5976C12.5183 16.078 11.9948 17.8958 12 19.7647C12 20.7529 12.144 21.6988 12.408 22.5882H0V19.7647C0 16.6447 4.296 14.1176 9.6 14.1176Z" fill="#6E7191"/>
</svg>
