<svg width="24" height="24" viewBox="0 0 24 24" fill="none" xmlns="http://www.w3.org/2000/svg">
<path d="M12 12C11.3527 12 10.72 12.2111 10.1818 12.6067C9.64357 13.0023 9.2241 13.5645 8.97639 14.2223C8.72869 14.8802 8.66388 15.604 8.79016 16.3023C8.91644 17.0007 9.22813 17.6421 9.68583 18.1456C10.1435 18.6491 10.7267 18.9919 11.3615 19.1308C11.9964 19.2697 12.6544 19.1984 13.2524 18.926C13.8504 18.6535 14.3616 18.1921 14.7212 17.6001C15.0808 17.008 15.2727 16.312 15.2727 15.6C15.2727 14.6452 14.9279 13.7295 14.3142 13.0544C13.7004 12.3793 12.868 12 12 12ZM12 16.8C11.7842 16.8 11.5733 16.7296 11.3939 16.5978C11.2145 16.4659 11.0747 16.2785 10.9921 16.0592C10.9096 15.8399 10.888 15.5987 10.9301 15.3659C10.9721 15.1331 11.076 14.9193 11.2286 14.7515C11.3812 14.5836 11.5756 14.4694 11.7872 14.4231C11.9988 14.3768 12.2181 14.4005 12.4175 14.4913C12.6168 14.5822 12.7872 14.736 12.9071 14.9333C13.0269 15.1307 13.0909 15.3627 13.0909 15.6C13.0909 15.9183 12.976 16.2235 12.7714 16.4485C12.5668 16.6736 12.2893 16.8 12 16.8ZM11.2255 9.252C11.3292 9.36125 11.4515 9.44689 11.5855 9.504C11.716 9.56749 11.8572 9.60028 12 9.60028C12.1428 9.60028 12.284 9.56749 12.4145 9.504C12.5485 9.44689 12.6708 9.36125 12.7745 9.252L15.2727 6.552C15.4839 6.31967 15.6026 6.00456 15.6026 5.676C15.6026 5.34744 15.4839 5.03233 15.2727 4.8C15.0615 4.56767 14.7751 4.43715 14.4764 4.43715C14.1777 4.43715 13.8912 4.56767 13.68 4.8L13.0909 5.508V1.2C13.0909 0.88174 12.976 0.576515 12.7714 0.351472C12.5668 0.126428 12.2893 0 12 0C11.7107 0 11.4332 0.126428 11.2286 0.351472C11.024 0.576515 10.9091 0.88174 10.9091 1.2V5.508L10.32 4.8C10.1088 4.56767 9.82233 4.43715 9.52364 4.43715C9.22494 4.43715 8.93848 4.56767 8.72727 4.8C8.51606 5.03233 8.39741 5.34744 8.39741 5.676C8.39741 6.00456 8.51606 6.31967 8.72727 6.552L11.2255 9.252ZM19.6364 15.6C19.6364 15.3627 19.5724 15.1307 19.4525 14.9333C19.3326 14.736 19.1623 14.5822 18.9629 14.4913C18.7636 14.4005 18.5442 14.3768 18.3326 14.4231C18.121 14.4694 17.9266 14.5836 17.7741 14.7515C17.6215 14.9193 17.5176 15.1331 17.4755 15.3659C17.4334 15.5987 17.455 15.8399 17.5376 16.0592C17.6202 16.2785 17.76 16.4659 17.9394 16.5978C18.1188 16.7296 18.3297 16.8 18.5455 16.8C18.8348 16.8 19.1123 16.6736 19.3168 16.4485C19.5214 16.2235 19.6364 15.9183 19.6364 15.6ZM20.7273 7.2H17.4545C17.1652 7.2 16.8877 7.32643 16.6832 7.55147C16.4786 7.77652 16.3636 8.08174 16.3636 8.4C16.3636 8.71826 16.4786 9.02348 16.6832 9.24853C16.8877 9.47357 17.1652 9.6 17.4545 9.6H20.7273C21.0166 9.6 21.2941 9.72643 21.4987 9.95147C21.7032 10.1765 21.8182 10.4817 21.8182 10.8V20.4C21.8182 20.7183 21.7032 21.0235 21.4987 21.2485C21.2941 21.4736 21.0166 21.6 20.7273 21.6H3.27273C2.9834 21.6 2.70592 21.4736 2.50134 21.2485C2.29675 21.0235 2.18182 20.7183 2.18182 20.4V10.8C2.18182 10.4817 2.29675 10.1765 2.50134 9.95147C2.70592 9.72643 2.9834 9.6 3.27273 9.6H6.54545C6.83478 9.6 7.11226 9.47357 7.31684 9.24853C7.52143 9.02348 7.63636 8.71826 7.63636 8.4C7.63636 8.08174 7.52143 7.77652 7.31684 7.55147C7.11226 7.32643 6.83478 7.2 6.54545 7.2H3.27273C2.40475 7.2 1.57232 7.57928 0.95856 8.25442C0.344804 8.92955 0 9.84522 0 10.8V20.4C0 21.3548 0.344804 22.2705 0.95856 22.9456C1.57232 23.6207 2.40475 24 3.27273 24H20.7273C21.5953 24 22.4277 23.6207 23.0414 22.9456C23.6552 22.2705 24 21.3548 24 20.4V10.8C24 9.84522 23.6552 8.92955 23.0414 8.25442C22.4277 7.57928 21.5953 7.2 20.7273 7.2ZM4.36364 15.6C4.36364 15.8373 4.42762 16.0693 4.54749 16.2667C4.66736 16.464 4.83774 16.6178 5.03707 16.7087C5.23641 16.7995 5.45576 16.8232 5.66737 16.7769C5.87899 16.7306 6.07337 16.6164 6.22593 16.4485C6.3785 16.2807 6.4824 16.0669 6.52449 15.8341C6.56659 15.6013 6.54498 15.3601 6.46241 15.1408C6.37985 14.9215 6.24002 14.7341 6.06062 14.6022C5.88122 14.4704 5.67031 14.4 5.45455 14.4C5.16522 14.4 4.88774 14.5264 4.68316 14.7515C4.47857 14.9765 4.36364 15.2817 4.36364 15.6Z" fill="#6E7191"/>
</svg>
