<svg width="24" height="24" viewBox="0 0 24 24" fill="none" xmlns="http://www.w3.org/2000/svg">
<path d="M20.532 5.62625C20.6157 5.62625 20.696 5.58674 20.7553 5.51641C20.8145 5.44609 20.8477 5.3507 20.8477 5.25125V4.0025C20.8474 3.6768 20.7383 3.36456 20.5444 3.13426C20.3504 2.90395 20.0875 2.7744 19.8132 2.774H18.1162L17.729 1.41725C17.7027 1.32498 17.6472 1.24849 17.5742 1.20398C17.5012 1.15946 17.4165 1.15042 17.3381 1.17875L8.14669 4.49675C8.07062 4.52971 8.00808 4.59605 7.97195 4.68212C7.93583 4.76818 7.92886 4.86742 7.9525 4.9594C7.97613 5.05138 8.02856 5.12909 8.09899 5.17655C8.16943 5.224 8.2525 5.23759 8.33111 5.2145L17.2294 2.0015L18.0776 4.97525C18.1045 5.06943 18.1618 5.14708 18.2369 5.1911C18.312 5.23513 18.3987 5.24192 18.4781 5.21C18.5574 5.17807 18.6228 5.11004 18.6598 5.02087C18.6969 4.93169 18.7026 4.82868 18.6757 4.7345L18.3303 3.52325H19.8138C20.0362 3.52325 20.2168 3.73775 20.2168 4.00175V5.25125C20.2162 5.45825 20.3576 5.62625 20.532 5.62625Z" fill="black"/>
<path d="M20.532 5.62625C20.6157 5.62625 20.696 5.58674 20.7553 5.51641C20.8145 5.44609 20.8477 5.3507 20.8477 5.25125V4.0025C20.8474 3.6768 20.7383 3.36456 20.5444 3.13426C20.3504 2.90395 20.0875 2.7744 19.8132 2.774H18.1162L17.729 1.41725C17.7027 1.32498 17.6472 1.24849 17.5742 1.20398C17.5012 1.15946 17.4165 1.15042 17.3381 1.17875L8.14669 4.49675C8.07062 4.52971 8.00808 4.59605 7.97195 4.68212C7.93583 4.76818 7.92886 4.86742 7.9525 4.9594C7.97613 5.05138 8.02856 5.12909 8.09899 5.17655C8.16943 5.224 8.2525 5.23759 8.33111 5.2145L17.2294 2.0015L18.0776 4.97525C18.1045 5.06943 18.1618 5.14708 18.2369 5.1911C18.312 5.23513 18.3987 5.24192 18.4781 5.21C18.5574 5.17807 18.6228 5.11004 18.6598 5.02087C18.6969 4.93169 18.7026 4.82868 18.6757 4.7345L18.3303 3.52325H19.8138C20.0362 3.52325 20.2168 3.73775 20.2168 4.00175V5.25125C20.2162 5.45825 20.3576 5.62625 20.532 5.62625Z" fill="#6E7191"/>
<path d="M23.0526 11.251C22.9689 11.251 22.8886 11.2905 22.8293 11.3608C22.7701 11.4311 22.7368 11.5265 22.7368 11.626C22.7368 11.7254 22.7701 11.8208 22.8293 11.8911C22.8886 11.9614 22.9689 12.001 23.0526 12.001C23.2743 12.001 23.3684 12.1127 23.3684 12.376V16.876C23.3684 17.1392 23.2743 17.251 23.0526 17.251H18C17.7783 17.251 17.6842 17.1392 17.6842 16.876V13.126C17.6842 12.8627 17.7783 12.751 18 12.751H21.7895C21.8732 12.751 21.9535 12.7114 22.0128 12.6411C22.072 12.5708 22.1053 12.4754 22.1053 12.376V7.87596C22.1053 7.19271 21.7333 6.75096 21.1579 6.75096H1.89474C1.116 6.75096 0.631579 6.17571 0.631579 5.25096C0.631579 4.32621 1.116 3.75096 1.89474 3.75096H5.10063L3.18947 4.49946C3.14866 4.51343 3.11064 4.53704 3.07769 4.56887C3.04474 4.6007 3.01754 4.6401 2.99771 4.6847C2.97788 4.72931 2.96583 4.77821 2.96229 4.82847C2.95874 4.87873 2.96377 4.92933 2.97708 4.97723C2.99038 5.02513 3.01169 5.06935 3.03972 5.10725C3.06775 5.14515 3.10193 5.17594 3.14021 5.19778C3.1785 5.21963 3.2201 5.23207 3.26253 5.23438C3.30497 5.23669 3.34735 5.2288 3.38716 5.21121L14.8307 0.731455C14.8701 0.715992 14.9066 0.691466 14.938 0.659277C14.9694 0.627087 14.9952 0.587865 15.0138 0.54385C15.0325 0.499835 15.0436 0.451889 15.0467 0.40275C15.0497 0.35361 15.0446 0.304239 15.0316 0.257455C15.0186 0.210672 14.9979 0.167392 14.9708 0.130088C14.9437 0.0927829 14.9107 0.0621836 14.8736 0.0400368C14.8365 0.0178901 14.7962 0.00462956 14.7548 0.00101241C14.7134 -0.00260474 14.6718 0.00349232 14.6324 0.0189555L6.99032 3.01146C6.97579 3.00846 6.96253 3.00096 6.94737 3.00096H1.89474C0.761684 3.00096 0 3.90546 0 5.25096V21.751C0 23.0965 0.761684 24.001 1.89474 24.001H21.1579C21.7333 24.001 22.1053 23.5592 22.1053 22.876V19.126C22.1053 19.0265 22.072 18.9311 22.0128 18.8608C21.9535 18.7905 21.8732 18.751 21.7895 18.751C21.7057 18.751 21.6254 18.7905 21.5662 18.8608C21.507 18.9311 21.4737 19.0265 21.4737 19.126V22.876C21.4737 23.1392 21.3796 23.251 21.1579 23.251H1.89474C1.116 23.251 0.631579 22.6757 0.631579 21.751V6.98496C0.955579 7.30971 1.38442 7.50096 1.89474 7.50096H21.1579C21.3796 7.50096 21.4737 7.61271 21.4737 7.87596V12.001H18C17.4246 12.001 17.0526 12.4427 17.0526 13.126V16.876C17.0526 17.5592 17.4246 18.001 18 18.001H23.0526C23.628 18.001 24 17.5592 24 16.876V12.376C24 11.6927 23.628 11.251 23.0526 11.251Z" fill="black"/>
<path d="M23.0526 11.251C22.9689 11.251 22.8886 11.2905 22.8293 11.3608C22.7701 11.4311 22.7368 11.5265 22.7368 11.626C22.7368 11.7254 22.7701 11.8208 22.8293 11.8911C22.8886 11.9614 22.9689 12.001 23.0526 12.001C23.2743 12.001 23.3684 12.1127 23.3684 12.376V16.876C23.3684 17.1392 23.2743 17.251 23.0526 17.251H18C17.7783 17.251 17.6842 17.1392 17.6842 16.876V13.126C17.6842 12.8627 17.7783 12.751 18 12.751H21.7895C21.8732 12.751 21.9535 12.7114 22.0128 12.6411C22.072 12.5708 22.1053 12.4754 22.1053 12.376V7.87596C22.1053 7.19271 21.7333 6.75096 21.1579 6.75096H1.89474C1.116 6.75096 0.631579 6.17571 0.631579 5.25096C0.631579 4.32621 1.116 3.75096 1.89474 3.75096H5.10063L3.18947 4.49946C3.14866 4.51343 3.11064 4.53704 3.07769 4.56887C3.04474 4.6007 3.01754 4.6401 2.99771 4.6847C2.97788 4.72931 2.96583 4.77821 2.96229 4.82847C2.95874 4.87873 2.96377 4.92933 2.97708 4.97723C2.99038 5.02513 3.01169 5.06935 3.03972 5.10725C3.06775 5.14515 3.10193 5.17594 3.14021 5.19778C3.1785 5.21963 3.2201 5.23207 3.26253 5.23438C3.30497 5.23669 3.34735 5.2288 3.38716 5.21121L14.8307 0.731455C14.8701 0.715992 14.9066 0.691466 14.938 0.659277C14.9694 0.627087 14.9952 0.587865 15.0138 0.54385C15.0325 0.499835 15.0436 0.451889 15.0467 0.40275C15.0497 0.35361 15.0446 0.304239 15.0316 0.257455C15.0186 0.210672 14.9979 0.167392 14.9708 0.130088C14.9437 0.0927829 14.9107 0.0621836 14.8736 0.0400368C14.8365 0.0178901 14.7962 0.00462956 14.7548 0.00101241C14.7134 -0.00260474 14.6718 0.00349232 14.6324 0.0189555L6.99032 3.01146C6.97579 3.00846 6.96253 3.00096 6.94737 3.00096H1.89474C0.761684 3.00096 0 3.90546 0 5.25096V21.751C0 23.0965 0.761684 24.001 1.89474 24.001H21.1579C21.7333 24.001 22.1053 23.5592 22.1053 22.876V19.126C22.1053 19.0265 22.072 18.9311 22.0128 18.8608C21.9535 18.7905 21.8732 18.751 21.7895 18.751C21.7057 18.751 21.6254 18.7905 21.5662 18.8608C21.507 18.9311 21.4737 19.0265 21.4737 19.126V22.876C21.4737 23.1392 21.3796 23.251 21.1579 23.251H1.89474C1.116 23.251 0.631579 22.6757 0.631579 21.751V6.98496C0.955579 7.30971 1.38442 7.50096 1.89474 7.50096H21.1579C21.3796 7.50096 21.4737 7.61271 21.4737 7.87596V12.001H18C17.4246 12.001 17.0526 12.4427 17.0526 13.126V16.876C17.0526 17.5592 17.4246 18.001 18 18.001H23.0526C23.628 18.001 24 17.5592 24 16.876V12.376C24 11.6927 23.628 11.251 23.0526 11.251Z" fill="#6E7191"/>
<path d="M20.2104 15.7513C20.5592 15.7513 20.842 15.4155 20.842 15.0013C20.842 14.5871 20.5592 14.2513 20.2104 14.2513C19.8616 14.2513 19.5789 14.5871 19.5789 15.0013C19.5789 15.4155 19.8616 15.7513 20.2104 15.7513Z" fill="black"/>
<path d="M20.2104 15.7513C20.5592 15.7513 20.842 15.4155 20.842 15.0013C20.842 14.5871 20.5592 14.2513 20.2104 14.2513C19.8616 14.2513 19.5789 14.5871 19.5789 15.0013C19.5789 15.4155 19.8616 15.7513 20.2104 15.7513Z" fill="#6E7191"/>
</svg>
