<svg width="24" height="24" viewBox="0 0 24 24" fill="none" xmlns="http://www.w3.org/2000/svg">
<path d="M10.32 4.79521L10.9091 4.08704V8.39611C10.9091 8.71445 11.024 9.01975 11.2286 9.24485C11.4332 9.46995 11.7107 9.59641 12 9.59641C12.2893 9.59641 12.5668 9.46995 12.7714 9.24485C12.976 9.01975 13.0909 8.71445 13.0909 8.39611V4.08704L13.68 4.7472C13.779 4.87026 13.9 4.96963 14.0353 5.03915C14.1707 5.10868 14.3176 5.14687 14.4669 5.15137C14.6162 5.15587 14.7648 5.12659 14.9034 5.06532C15.042 5.00406 15.1677 4.91212 15.2727 4.79521C15.375 4.68363 15.4561 4.55087 15.5115 4.40461C15.5669 4.25834 15.5954 4.10145 15.5954 3.943C15.5954 3.78455 15.5669 3.62766 15.5115 3.48139C15.4561 3.33512 15.375 3.20237 15.2727 3.09079L12.7745 0.342102C12.6708 0.232826 12.5485 0.147166 12.4145 0.0900387C12.149 -0.0300129 11.851 -0.0300129 11.5855 0.0900387C11.4515 0.147166 11.3292 0.232826 11.2255 0.342102L8.72727 3.04277C8.51606 3.27516 8.39741 3.59035 8.39741 3.91899C8.39741 4.24764 8.51606 4.56282 8.72727 4.79521C8.93848 5.0276 9.22494 5.15815 9.52364 5.15815C9.82233 5.15815 10.1088 5.0276 10.32 4.79521ZM12 11.997C11.3527 11.997 10.72 12.2082 10.1818 12.6039C9.64357 12.9995 9.2241 13.5619 8.97639 14.2199C8.72869 14.8779 8.66388 15.6019 8.79016 16.3004C8.91644 16.9989 9.22813 17.6405 9.68583 18.1441C10.1435 18.6477 10.7267 18.9907 11.3615 19.1296C11.9964 19.2686 12.6544 19.1972 13.2524 18.9247C13.8504 18.6522 14.3616 18.1906 14.7212 17.5985C15.0808 17.0063 15.2727 16.3101 15.2727 15.5979C15.2727 14.6429 14.9279 13.727 14.3142 13.0517C13.7004 12.3764 12.868 11.997 12 11.997ZM12 16.7982C11.7842 16.7982 11.5733 16.7278 11.3939 16.5959C11.2145 16.464 11.0747 16.2766 10.9921 16.0572C10.9096 15.8379 10.888 15.5966 10.9301 15.3637C10.9721 15.1309 11.076 14.917 11.2286 14.7492C11.3812 14.5813 11.5756 14.467 11.7872 14.4207C11.9988 14.3744 12.2181 14.3981 12.4175 14.489C12.6168 14.5798 12.7872 14.7337 12.9071 14.9311C13.0269 15.1284 13.0909 15.3605 13.0909 15.5979C13.0909 15.9162 12.976 16.2215 12.7714 16.4466C12.5668 16.6717 12.2893 16.7982 12 16.7982ZM4.36364 15.5979C4.36364 15.8353 4.42762 16.0674 4.54749 16.2648C4.66736 16.4621 4.83774 16.616 5.03707 16.7068C5.23641 16.7977 5.45576 16.8215 5.66737 16.7751C5.87899 16.7288 6.07337 16.6145 6.22593 16.4466C6.3785 16.2788 6.4824 16.0649 6.52449 15.8321C6.56659 15.5992 6.54498 15.3579 6.46241 15.1386C6.37985 14.9192 6.24002 14.7318 6.06062 14.5999C5.88122 14.468 5.67031 14.3976 5.45455 14.3976C5.16522 14.3976 4.88774 14.5241 4.68316 14.7492C4.47857 14.9743 4.36364 15.2796 4.36364 15.5979ZM19.6364 15.5979C19.6364 15.3605 19.5724 15.1284 19.4525 14.9311C19.3326 14.7337 19.1623 14.5798 18.9629 14.489C18.7636 14.3981 18.5442 14.3744 18.3326 14.4207C18.121 14.467 17.9266 14.5813 17.7741 14.7492C17.6215 14.917 17.5176 15.1309 17.4755 15.3637C17.4334 15.5966 17.455 15.8379 17.5376 16.0572C17.6202 16.2766 17.76 16.464 17.9394 16.5959C18.1188 16.7278 18.3297 16.7982 18.5455 16.7982C18.8348 16.7982 19.1123 16.6717 19.3168 16.4466C19.5214 16.2215 19.6364 15.9162 19.6364 15.5979ZM20.7273 7.19581H16.3636C16.0743 7.19581 15.7968 7.32227 15.5922 7.54737C15.3877 7.77247 15.2727 8.07777 15.2727 8.39611C15.2727 8.71445 15.3877 9.01975 15.5922 9.24485C15.7968 9.46995 16.0743 9.59641 16.3636 9.59641H20.7273C21.0166 9.59641 21.2941 9.72287 21.4987 9.94797C21.7032 10.1731 21.8182 10.4784 21.8182 10.7967V20.3991C21.8182 20.7174 21.7032 21.0227 21.4987 21.2478C21.2941 21.4729 21.0166 21.5994 20.7273 21.5994H3.27273C2.9834 21.5994 2.70592 21.4729 2.50134 21.2478C2.29675 21.0227 2.18182 20.7174 2.18182 20.3991V10.7967C2.18182 10.4784 2.29675 10.1731 2.50134 9.94797C2.70592 9.72287 2.9834 9.59641 3.27273 9.59641H7.63636C7.92569 9.59641 8.20317 9.46995 8.40775 9.24485C8.61234 9.01975 8.72727 8.71445 8.72727 8.39611C8.72727 8.07777 8.61234 7.77247 8.40775 7.54737C8.20317 7.32227 7.92569 7.19581 7.63636 7.19581H3.27273C2.40475 7.19581 1.57232 7.57519 0.95856 8.25049C0.344804 8.92579 0 9.84169 0 10.7967V20.3991C0 21.3541 0.344804 22.27 0.95856 22.9453C1.57232 23.6206 2.40475 24 3.27273 24H20.7273C21.5953 24 22.4277 23.6206 23.0414 22.9453C23.6552 22.27 24 21.3541 24 20.3991V10.7967C24 9.84169 23.6552 8.92579 23.0414 8.25049C22.4277 7.57519 21.5953 7.19581 20.7273 7.19581Z" fill="black"/>
<path d="M10.32 4.79521L10.9091 4.08704V8.39611C10.9091 8.71445 11.024 9.01975 11.2286 9.24485C11.4332 9.46995 11.7107 9.59641 12 9.59641C12.2893 9.59641 12.5668 9.46995 12.7714 9.24485C12.976 9.01975 13.0909 8.71445 13.0909 8.39611V4.08704L13.68 4.7472C13.779 4.87026 13.9 4.96963 14.0353 5.03915C14.1707 5.10868 14.3176 5.14687 14.4669 5.15137C14.6162 5.15587 14.7648 5.12659 14.9034 5.06532C15.042 5.00406 15.1677 4.91212 15.2727 4.79521C15.375 4.68363 15.4561 4.55087 15.5115 4.40461C15.5669 4.25834 15.5954 4.10145 15.5954 3.943C15.5954 3.78455 15.5669 3.62766 15.5115 3.48139C15.4561 3.33512 15.375 3.20237 15.2727 3.09079L12.7745 0.342102C12.6708 0.232826 12.5485 0.147166 12.4145 0.0900387C12.149 -0.0300129 11.851 -0.0300129 11.5855 0.0900387C11.4515 0.147166 11.3292 0.232826 11.2255 0.342102L8.72727 3.04277C8.51606 3.27516 8.39741 3.59035 8.39741 3.91899C8.39741 4.24764 8.51606 4.56282 8.72727 4.79521C8.93848 5.0276 9.22494 5.15815 9.52364 5.15815C9.82233 5.15815 10.1088 5.0276 10.32 4.79521ZM12 11.997C11.3527 11.997 10.72 12.2082 10.1818 12.6039C9.64357 12.9995 9.2241 13.5619 8.97639 14.2199C8.72869 14.8779 8.66388 15.6019 8.79016 16.3004C8.91644 16.9989 9.22813 17.6405 9.68583 18.1441C10.1435 18.6477 10.7267 18.9907 11.3615 19.1296C11.9964 19.2686 12.6544 19.1972 13.2524 18.9247C13.8504 18.6522 14.3616 18.1906 14.7212 17.5985C15.0808 17.0063 15.2727 16.3101 15.2727 15.5979C15.2727 14.6429 14.9279 13.727 14.3142 13.0517C13.7004 12.3764 12.868 11.997 12 11.997ZM12 16.7982C11.7842 16.7982 11.5733 16.7278 11.3939 16.5959C11.2145 16.464 11.0747 16.2766 10.9921 16.0572C10.9096 15.8379 10.888 15.5966 10.9301 15.3637C10.9721 15.1309 11.076 14.917 11.2286 14.7492C11.3812 14.5813 11.5756 14.467 11.7872 14.4207C11.9988 14.3744 12.2181 14.3981 12.4175 14.489C12.6168 14.5798 12.7872 14.7337 12.9071 14.9311C13.0269 15.1284 13.0909 15.3605 13.0909 15.5979C13.0909 15.9162 12.976 16.2215 12.7714 16.4466C12.5668 16.6717 12.2893 16.7982 12 16.7982ZM4.36364 15.5979C4.36364 15.8353 4.42762 16.0674 4.54749 16.2648C4.66736 16.4621 4.83774 16.616 5.03707 16.7068C5.23641 16.7977 5.45576 16.8215 5.66737 16.7751C5.87899 16.7288 6.07337 16.6145 6.22593 16.4466C6.3785 16.2788 6.4824 16.0649 6.52449 15.8321C6.56659 15.5992 6.54498 15.3579 6.46241 15.1386C6.37985 14.9192 6.24002 14.7318 6.06062 14.5999C5.88122 14.468 5.67031 14.3976 5.45455 14.3976C5.16522 14.3976 4.88774 14.5241 4.68316 14.7492C4.47857 14.9743 4.36364 15.2796 4.36364 15.5979ZM19.6364 15.5979C19.6364 15.3605 19.5724 15.1284 19.4525 14.9311C19.3326 14.7337 19.1623 14.5798 18.9629 14.489C18.7636 14.3981 18.5442 14.3744 18.3326 14.4207C18.121 14.467 17.9266 14.5813 17.7741 14.7492C17.6215 14.917 17.5176 15.1309 17.4755 15.3637C17.4334 15.5966 17.455 15.8379 17.5376 16.0572C17.6202 16.2766 17.76 16.464 17.9394 16.5959C18.1188 16.7278 18.3297 16.7982 18.5455 16.7982C18.8348 16.7982 19.1123 16.6717 19.3168 16.4466C19.5214 16.2215 19.6364 15.9162 19.6364 15.5979ZM20.7273 7.19581H16.3636C16.0743 7.19581 15.7968 7.32227 15.5922 7.54737C15.3877 7.77247 15.2727 8.07777 15.2727 8.39611C15.2727 8.71445 15.3877 9.01975 15.5922 9.24485C15.7968 9.46995 16.0743 9.59641 16.3636 9.59641H20.7273C21.0166 9.59641 21.2941 9.72287 21.4987 9.94797C21.7032 10.1731 21.8182 10.4784 21.8182 10.7967V20.3991C21.8182 20.7174 21.7032 21.0227 21.4987 21.2478C21.2941 21.4729 21.0166 21.5994 20.7273 21.5994H3.27273C2.9834 21.5994 2.70592 21.4729 2.50134 21.2478C2.29675 21.0227 2.18182 20.7174 2.18182 20.3991V10.7967C2.18182 10.4784 2.29675 10.1731 2.50134 9.94797C2.70592 9.72287 2.9834 9.59641 3.27273 9.59641H7.63636C7.92569 9.59641 8.20317 9.46995 8.40775 9.24485C8.61234 9.01975 8.72727 8.71445 8.72727 8.39611C8.72727 8.07777 8.61234 7.77247 8.40775 7.54737C8.20317 7.32227 7.92569 7.19581 7.63636 7.19581H3.27273C2.40475 7.19581 1.57232 7.57519 0.95856 8.25049C0.344804 8.92579 0 9.84169 0 10.7967V20.3991C0 21.3541 0.344804 22.27 0.95856 22.9453C1.57232 23.6206 2.40475 24 3.27273 24H20.7273C21.5953 24 22.4277 23.6206 23.0414 22.9453C23.6552 22.27 24 21.3541 24 20.3991V10.7967C24 9.84169 23.6552 8.92579 23.0414 8.25049C22.4277 7.57519 21.5953 7.19581 20.7273 7.19581Z" fill="#6E7191"/>
</svg>
